<?xml version="1.0" standalone="no"?>
<!DOCTYPE svg PUBLIC "-//W3C//DTD SVG 20010904//EN"
 "http://www.w3.org/TR/2001/REC-SVG-20010904/DTD/svg10.dtd">
<svg version="1.0" xmlns="http://www.w3.org/2000/svg"
 width="449.000000pt" height="135.000000pt" viewBox="0 0 449.000000 135.000000"
 preserveAspectRatio="xMidYMid meet">

<g transform="translate(0.000000,135.000000) scale(0.100000,-0.100000)"
fill="#000000" stroke="none">
<path d="M363 1310 c-183 -33 -274 -166 -232 -336 16 -64 83 -134 161 -170 60
-28 70 -29 203 -29 137 0 141 1 194 30 55 30 111 94 111 125 0 26 -17 35 -109
55 -83 19 -85 19 -95 0 -6 -11 -23 -32 -38 -47 -24 -25 -33 -28 -92 -28 -64 0
-67 1 -87 33 -16 26 -19 45 -17 100 3 60 7 71 35 99 26 26 42 32 86 36 53 4
57 3 93 -33 41 -41 47 -41 171 -15 l53 12 -15 28 c-22 43 -101 107 -153 124
-59 20 -201 28 -269 16z"/>
<path d="M2538 1310 c-122 -19 -182 -76 -175 -163 7 -82 66 -121 240 -157 107
-23 137 -36 137 -61 0 -65 -180 -49 -196 17 l-7 27 -99 -5 c-54 -3 -100 -7
-103 -10 -10 -10 18 -81 46 -113 49 -55 103 -70 259 -70 151 0 192 10 247 58
60 53 79 127 48 187 -24 47 -92 79 -220 105 -142 29 -155 33 -155 50 0 17 23
25 77 25 37 0 50 -5 74 -31 29 -31 30 -31 113 -28 101 5 113 13 93 60 -31 74
-97 106 -235 113 -48 3 -113 1 -144 -4z"/>
<path d="M890 1128 c0 -101 -3 -212 -6 -249 -10 -103 -24 -99 307 -99 l280 0
-3 63 -3 62 -177 3 -178 2 0 40 0 40 165 0 165 0 0 53 c0 29 -5 58 -12 65 -8
8 -59 12 -165 12 l-153 0 0 30 0 30 175 0 175 0 0 49 c0 87 23 81 -291 81
l-279 0 0 -182z"/>
<path d="M1582 1048 l3 -263 98 -3 97 -3 0 137 0 137 26 -24 c14 -13 71 -75
126 -136 l100 -113 99 0 99 0 0 265 0 265 -100 0 -100 0 0 -142 -1 -143 -40
45 c-22 25 -80 89 -127 142 l-87 97 -98 1 -97 0 2 -262z"/>
<path d="M3056 1294 c-3 -9 -6 -128 -6 -265 l0 -249 288 2 287 3 3 63 3 62
-181 0 -180 0 0 40 0 40 151 0 c176 0 182 3 177 77 l-3 48 -162 3 -163 2 0 30
0 30 169 0 c190 0 181 -4 181 81 l0 49 -279 0 c-245 0 -280 -2 -285 -16z"/>
<path d="M3743 1296 c-10 -11 -13 -80 -13 -266 l0 -250 99 0 c55 0 106 3 115
6 13 5 16 24 16 104 l0 97 25 -5 c28 -5 57 -36 127 -135 l48 -67 112 1 c162 1
160 -2 87 102 -33 48 -77 99 -97 112 -20 14 -30 25 -22 25 23 0 90 52 106 81
19 38 18 95 -3 130 -10 16 -38 39 -63 52 -42 20 -60 22 -285 25 -203 2 -242 0
-252 -12z m357 -119 c15 -8 26 -23 28 -38 4 -32 -15 -39 -105 -39 l-63 0 0 45
0 45 58 0 c31 0 68 -6 82 -13z"/>
<path d="M301 600 c-84 -20 -124 -81 -119 -182 4 -75 21 -107 78 -145 25 -18
47 -23 95 -23 73 0 117 24 147 80 l18 35 -27 11 c-62 25 -71 26 -78 4 -16 -51
-69 -66 -105 -30 -25 25 -28 114 -4 148 20 30 77 30 97 1 13 -18 21 -20 61
-14 25 4 46 12 46 17 0 20 -33 66 -59 81 -33 19 -106 28 -150 17z"/>
<path d="M2085 604 c-49 -12 -77 -29 -90 -55 -36 -68 -9 -111 90 -144 73 -25
92 -41 82 -69 -14 -35 -97 -7 -97 32 0 13 -22 15 -69 6 -41 -8 -41 -34 2 -80
28 -31 39 -36 93 -41 75 -7 125 8 159 48 57 69 18 144 -91 174 -32 9 -65 18
-72 21 -24 7 -8 39 20 42 19 2 31 -3 42 -20 13 -20 22 -23 66 -20 47 4 50 6
44 25 -7 25 -32 55 -54 67 -20 11 -100 20 -125 14z"/>
<path d="M3190 565 c0 -35 0 -35 45 -35 45 0 45 0 45 35 0 35 0 35 -45 35 -45
0 -45 0 -45 -35z"/>
<path d="M3670 565 c0 -35 0 -35 45 -35 45 0 45 0 45 35 0 35 0 35 -45 35 -45
0 -45 0 -45 -35z"/>
<path d="M612 493 c-82 -40 -84 -186 -2 -228 37 -19 133 -19 170 0 31 16 54
48 43 59 -10 10 -91 7 -98 -4 -15 -25 -75 -4 -75 27 0 10 24 13 96 13 l97 0
-6 37 c-7 44 -34 83 -68 100 -34 18 -118 16 -157 -4z m116 -55 c21 -21 13 -28
-33 -28 -46 0 -54 7 -33 28 15 15 51 15 66 0z"/>
<path d="M880 379 l0 -130 48 3 47 3 3 65 c3 100 8 112 40 108 27 -3 27 -4 32
-88 l5 -85 45 0 45 0 3 85 c3 99 -1 123 -28 150 -27 27 -89 27 -124 -1 l-26
-20 0 20 c0 18 -6 21 -45 21 l-45 0 0 -131z"/>
<path d="M1240 497 c-69 -35 -55 -115 22 -135 24 -6 55 -13 71 -17 31 -6 36
-31 7 -40 -19 -6 -60 9 -60 23 0 4 -20 6 -45 4 -25 -2 -45 -8 -45 -14 0 -79
209 -95 250 -19 30 56 -2 97 -90 115 -43 8 -65 18 -65 27 0 14 5 15 108 3 26
-3 47 -2 47 3 -1 14 -24 39 -47 51 -29 16 -122 15 -153 -1z"/>
<path d="M1493 495 c-3 -9 -3 -57 -1 -107 4 -84 6 -93 32 -114 34 -30 84 -31
119 -4 25 20 25 20 30 0 4 -16 14 -20 46 -20 l41 0 0 131 0 130 -47 -3 -48 -3
-5 -85 -5 -85 -30 0 -30 0 -3 88 -3 87 -45 0 c-31 0 -46 -5 -51 -15z"/>
<path d="M2381 493 c-67 -33 -86 -129 -40 -195 41 -58 174 -65 229 -13 22 21
27 31 18 37 -18 11 -86 10 -93 -2 -11 -18 -64 -11 -75 9 -5 11 -10 22 -10 25
0 3 45 6 100 6 l101 0 -7 38 c-3 20 -13 48 -21 60 -31 49 -136 67 -202 35z
m119 -63 c10 -19 8 -20 -40 -20 -48 0 -50 1 -40 20 7 13 21 20 40 20 19 0 33
-7 40 -20z"/>
<path d="M2650 380 l0 -130 45 0 45 0 0 53 c0 28 5 69 11 90 8 32 14 37 38 37
23 0 31 6 40 31 6 17 8 35 5 40 -9 15 -61 10 -75 -7 -11 -14 -13 -14 -21 0 -6
10 -23 16 -48 16 l-40 0 0 -130z"/>
<path d="M2861 503 c0 -5 24 -62 52 -128 l52 -120 41 -3 41 -3 52 122 c28 67
51 126 51 131 0 5 -21 8 -46 6 l-46 -3 -20 -65 c-11 -36 -23 -69 -27 -73 -4
-4 -18 26 -30 68 l-22 75 -49 0 c-28 0 -50 -3 -49 -7z"/>
<path d="M3190 380 l0 -130 45 0 45 0 0 130 0 130 -45 0 -45 0 0 -130z"/>
<path d="M3400 492 c-64 -32 -88 -117 -50 -180 35 -57 129 -79 205 -48 36 15
71 59 60 76 -10 16 -81 12 -95 -5 -15 -18 -61 -20 -78 -3 -16 16 -16 80 0 96
16 16 63 15 77 -2 9 -10 24 -13 49 -9 47 7 48 8 34 38 -24 52 -134 72 -202 37z"/>
<path d="M3670 380 l0 -130 45 0 45 0 0 130 0 130 -45 0 -45 0 0 -130z"/>
<path d="M3881 492 c-93 -50 -90 -188 4 -228 103 -43 215 17 215 116 0 101
-123 164 -219 112z m107 -64 c13 -13 16 -66 6 -92 -7 -19 -55 -21 -72 -4 -16
16 -16 80 0 96 7 7 21 12 33 12 12 0 26 -5 33 -12z"/>
<path d="M4184 496 c-78 -35 -48 -125 47 -141 63 -10 83 -23 68 -41 -15 -18
-43 -18 -59 1 -14 17 -110 22 -110 6 0 -6 11 -22 24 -37 20 -24 32 -28 88 -32
79 -5 132 16 146 56 19 56 -18 95 -101 107 -51 8 -66 20 -48 38 9 9 18 8 39
-3 32 -18 102 -15 102 4 0 7 -9 21 -21 32 -26 24 -131 30 -175 10z"/>
<path d="M180 75 c0 -13 241 -15 2110 -15 1869 0 2110 2 2110 15 0 13 -241 15
-2110 15 -1869 0 -2110 -2 -2110 -15z"/>
</g>
</svg>
